<svg width="249.99999999999997" height="150" xmlns="http://www.w3.org/2000/svg">

 <g>
  <title>Layer 1</title>
  <g>
   <g id="svg_1">
    <title>Layer 1</title>
    <g stroke="null">
     <g stroke="null">
      <title stroke="null">Layer 1</title>
      <g stroke="null">
       <path d="m158.60272,19.85695c0,-5.80047 -4.45801,-10.50344 -9.95636,-10.50344l-47.29271,0c-5.49835,0 -9.95637,4.70297 -9.95637,10.50344l0,110.2861c0,5.80047 4.45801,10.50344 9.95637,10.50344l47.29271,0c5.49835,0 9.95636,-4.70297 9.95636,-10.50344l0,-110.2861zm-38.54072,1.31293l9.95605,0c0.68782,0 1.24455,0.58795 1.24455,1.31293c0,0.72498 -0.55672,1.31293 -1.24455,1.31293l-9.95605,0c-0.68722,0 -1.24455,-0.58795 -1.24455,-1.31293c0,-0.72498 0.55733,-1.31293 1.24455,-1.31293zm4.56373,113.26058c-2.74917,0 -4.97999,-2.35148 -4.97999,-5.2514c0,-2.90056 2.23082,-5.25172 4.97999,-5.25172c2.74918,0 4.97577,2.35148 4.97577,5.25172c0,2.89992 -2.22659,5.2514 -4.97577,5.2514zm31.51013,-14.08662l-62.50646,0l0,-88.20103l62.50646,-0.46948l0,88.67052z" fill="#0050a6" stroke="#0050a6"/>
       <ellipse ry="9.12461" rx="9.08322" id="svg_4" cy="72.46539" cx="125.25952" fill="#0050a6" stroke="#0050a6"/>
       <path id="svg_3" d="m119.57155,72.53032l0.65637,-0.58103l3.68788,3.50064l-0.65637,0.58103l-3.68788,-3.50064z" fill="#ffffff" stroke="#ffffff"/>
       <path stroke="#ffffff" id="svg_2" d="m123.57375,76.00196l-0.64521,-0.59144l7.31213,-6.70272l0.64521,0.59144l-7.31213,6.70272z" fill="#ffffff"/>
      </g>
     </g>
    </g>
   </g>
  </g>
  <ellipse ry="6" rx="6" id="svg_6" cy="129.03756" cx="124.71831" stroke="#0050a6" fill="#0050a6"/>
  <ellipse ry="4.81221" rx="4.34272" id="svg_8" cy="129.22535" cx="124.76525" stroke="#ffffff" fill="none"/>
 </g>
</svg>