<svg width="250" height="150" xmlns="http://www.w3.org/2000/svg">
 <g>
  <title>Layer 1</title>
  <g stroke="null" id="svg_6">
   <g stroke="null" id="svg_1">
    <path stroke="null" id="svg_3" d="m139.9858,52.44737c0,-2.55016 -1.98814,-4.61781 -4.44024,-4.61781l-21.09113,0c-2.4521,0 -4.44024,2.06765 -4.44024,4.61781l0,48.48698c0,2.55016 1.98814,4.61781 4.44024,4.61781l21.09113,0c2.4521,0 4.44024,-2.06765 4.44024,-4.61781l0,-48.48698zm-17.188,0.57723l4.4401,0c0.30675,0 0.55503,0.25849 0.55503,0.57723c0,0.31873 -0.24828,0.57723 -0.55503,0.57723l-4.4401,0c-0.30648,0 -0.55503,-0.25849 -0.55503,-0.57723c0,-0.31873 0.24855,-0.57723 0.55503,-0.57723zm2.03529,49.7947c-1.22605,0 -2.22093,-1.03382 -2.22093,-2.30876c0,-1.27522 0.99488,-2.3089 2.22093,-2.3089c1.22605,0 2.21904,1.03382 2.21904,2.3089c0,1.27494 -0.99299,2.30876 -2.21904,2.30876zm12.37757,-6.50276l-24.42131,0l0,-38.67414l24.42131,0l0,38.67414z" fill="#0050a6"/>
   </g>
   <ellipse stroke="#0050a6" fill="none" cx="125" cy="75" id="svg_2" rx="65.31058" ry="64.13621" stroke-width="2"/>
   <ellipse stroke="#0050a6" fill="none" cx="125" cy="76.16611" id="svg_4" rx="53.43593" ry="52.47508" stroke-width="2"/>
   <ellipse stroke="#0050a6" fill="none" cx="125" cy="76.16611" id="svg_5" rx="41.56128" ry="40.81395" stroke-width="2"/>
  </g>
 </g>

</svg>