<?xml version="1.0" encoding="UTF-8" standalone="no"?>
<svg
   width="349.26001"
   height="697.26001"
   viewBox="0 0 349.26001 697.26001"
   version="1.1"
   id="svg29"
   sodipodi:docname="e20d2b6e9deefdbc51af93ec6695629f.svg"
   xmlns:inkscape="http://www.inkscape.org/namespaces/inkscape"
   xmlns:sodipodi="http://sodipodi.sourceforge.net/DTD/sodipodi-0.dtd"
   xmlns="http://www.w3.org/2000/svg"
   xmlns:svg="http://www.w3.org/2000/svg">
  <sodipodi:namedview
     id="namedview31"
     pagecolor="#ffffff"
     bordercolor="#666666"
     borderopacity="1.0"
     inkscape:pageshadow="2"
     inkscape:pageopacity="0.0"
     inkscape:pagecheckerboard="0" />
  <defs
     id="defs4">
    <style
       id="style2">
      .cls-1, .cls-4, .cls-6 {
        fill: none;
      }

      .cls-1, .cls-2, .cls-3, .cls-4, .cls-5, .cls-6 {
        stroke: #03559f;
      }

      .cls-1, .cls-2, .cls-3, .cls-5 {
        stroke-width: 9.26px;
      }

      .cls-1, .cls-2, .cls-3, .cls-4 {
        fill-rule: evenodd;
      }

      .cls-2, .cls-5 {
        fill: #03559f;
      }

      .cls-3 {
        fill: #0050a7;
      }

      .cls-4 {
        stroke-width: 6px;
      }

      .cls-6 {
        stroke-width: 2.76px;
      }
    </style>
  </defs>
  <path
     class="cls-1"
     d="m 54.63,4.6300001 h 240 A 50,50 0 0 1 344.63,54.63 v 588 a 50,50 0 0 1 -50,50 h -240 a 50,50 0 0 1 -49.9999999,-50 v -588 A 50,50 0 0 1 54.63,4.6300001 Z"
     id="path6" />
  <path
     class="cls-2"
     d="m 41.13,4.6300001 h 261 a 36.5,36.5 0 0 1 0,72.9999999 h -261 a 36.5,36.5 0 0 1 0,-72.9999999 z"
     id="path8" />
  <path
     id="Rectangle_3_copy"
     data-name="Rectangle 3 copy"
     class="cls-2"
     d="m 44.13,616.63 h 261 a 36.5,36.5 0 0 1 0,73 h -261 a 36.5,36.5 0 0 1 0,-73 z" />
  <path
     class="cls-3"
     d="M 9.1700001,41.051 H 337.059 V 86.209 H 9.1700001 Z"
     id="path11" />
  <path
     id="Line_3"
     data-name="Line 3"
     class="cls-4"
     d="m 74.095,172.572 v -0.93 h 239.007 v 0.93 z" />
  <path
     id="Line_3_copy_2"
     data-name="Line 3 copy 2"
     class="cls-4"
     d="m 74.095,292.056 v -0.926 h 239.007 v 0.93 H 74.095 Z" />
  <path
     id="Line_3_copy_3"
     data-name="Line 3 copy 3"
     class="cls-4"
     d="m 74.094,349.666 v -0.929 h 238.665 v 0.929 z" />
  <path
     id="Line_3_copy_4"
     data-name="Line 3 copy 4"
     class="cls-4"
     d="m 74.095,405.141 v -0.93 h 239.007 v 0.93 z" />
  <path
     id="Line_3_copy_5"
     data-name="Line 3 copy 5"
     class="cls-4"
     d="m 74.095,458.483 v -0.93 h 239.007 v 0.93 z" />
  <path
     id="Line_3_copy_6"
     data-name="Line 3 copy 6"
     class="cls-4"
     d="m 74.095,517.158 v -0.928 h 239.007 v 0.93 H 74.095 Z" />
  <path
     id="Line_3_copy"
     data-name="Line 3 copy"
     class="cls-4"
     d="m 70.97,232.33 v -0.952 h 244.819 v 0.952 z" />
  <path
     id="Rectangle_4_copy"
     data-name="Rectangle 4 copy"
     class="cls-2"
     d="M 9.1930001,603.94 H 338.693 v 45.38 H 9.1930001 Z" />
  <circle
     class="cls-5"
     cx="44.130001"
     cy="171.13"
     r="7.3119998"
     id="circle21" />
  <circle
     id="Ellipse_3_copy"
     data-name="Ellipse 3 copy"
     class="cls-5"
     cx="44.130001"
     cy="291.13"
     r="7.3119998" />
  <circle
     id="Ellipse_3_copy_2"
     data-name="Ellipse 3 copy 2"
     class="cls-5"
     cx="44.130001"
     cy="347.13"
     r="7.3119998" />
  <circle
     id="Ellipse_3_copy_3"
     data-name="Ellipse 3 copy 3"
     class="cls-5"
     cx="44.130001"
     cy="459.13"
     r="7.3119998" />
  <circle
     id="Ellipse_3_copy_4"
     data-name="Ellipse 3 copy 4"
     class="cls-5"
     cx="44.130001"
     cy="518.13"
     r="7.3119998" />
  <circle
     id="Ellipse_3_copy_5"
     data-name="Ellipse 3 copy 5"
     class="cls-6"
     cx="44.130001"
     cy="405.13"
     r="10.625" />
  <circle
     id="Ellipse_3_copy_6"
     data-name="Ellipse 3 copy 6"
     class="cls-6"
     cx="44.130001"
     cy="233.13"
     r="10.625" />
</svg>
