<svg width="250" height="150" xmlns="http://www.w3.org/2000/svg" xmlns:xlink="http://www.w3.org/1999/xlink">

 <g>
  <title>Layer 1</title>
  <g id="svg_7">
   <g stroke="null">
    <use stroke="null" transform="matrix(0.902433 0 0 1 8.169 0)" y="19.59944" x="88.18988" xlink:href="#svg_1"/>
    <symbol stroke="null" overflow="visible" id="svg_1">
     <path fill-rule="nonzero" fill="#fff" d="m52.889,14.036a7.36,7.36 0 0 1 6.207,-8.349a7.36,7.36 0 0 1 8.349,6.207c0.095,0.645 0.104,1.299 0.027,1.946l0.535,39.579l-0.048,9.008l-0.367,-27.083c-0.383,-2.6 0.651,-5.207 2.712,-6.838s4.835,-2.04 7.278,-1.071s4.184,3.167 4.566,5.768c0.095,0.645 0.104,1.299 0.027,1.946l0.367,27.083l-0.111,21.01c-0.885,17.292 -16.15,28.396 -33.458,27.51c-9.983,-0.552 -19.417,-4.746 -26.517,-11.785c-6.079,-6.458 -21.012,-24.031 -21.012,-24.031c-3.047,-4.496 -0.682,-11.446 1.668,-9.736l20.575,9.688l0.083,-11.25l-0.083,11.25l0.083,-11.25l-0.083,-45.521a7.36,7.36 0 0 1 6.207,-8.349a7.36,7.36 0 0 1 8.349,6.207c0.095,0.645 0.104,1.299 0.027,1.946l0.198,14.583l0.387,22.158l-0.764,-46.235c-0.383,-2.6 0.651,-5.207 2.712,-6.839s4.835,-2.04 7.278,-1.071s4.184,3.167 4.566,5.768c0.095,0.645 0.104,1.299 0.027,1.946l0.429,50.033"/>
     <path stroke="null" stroke-width="4.167" fill="#0050a6" d="m52.889,14.035a7.36,7.36 0 0 1 6.207,-8.349a7.36,7.36 0 0 1 8.349,6.207c0.095,0.645 0.104,1.299 0.027,1.946l0.535,39.579l-0.01,1.979l-0.402,-20.052c-0.383,-2.6 0.651,-5.207 2.712,-6.838s4.835,-2.04 7.278,-1.071s4.184,3.167 4.566,5.768c0.095,0.645 0.104,1.299 0.027,1.946l0.367,27.083l-0.11,21.01c-0.885,17.292 -16.15,28.396 -33.458,27.51c-9.983,-0.552 -19.417,-4.746 -26.517,-11.785c-6.08,-6.457 -21.013,-24.03 -21.013,-24.03c-3.048,-4.496 -0.683,-11.446 1.667,-9.735l20.575,9.688l0.083,-11.25l-0.083,11.25l0.083,-11.25l-0.083,-45.521a7.36,7.36 0 0 1 6.207,-8.349a7.36,7.36 0 0 1 8.349,6.207c0.095,0.645 0.104,1.299 0.027,1.946l0.198,14.583l0.387,22.158l-0.764,-46.235a7.36,7.36 0 0 1 6.207,-8.35a7.36,7.36 0 0 1 8.349,6.207c0.095,0.645 0.104,1.299 0.027,1.946l0.367,42.613"/>
    </symbol>
   </g>
   <ellipse ry="3.3557" rx="3.18791" id="svg_2" cy="87.68432" cx="91.87888" stroke="#0050a6" fill="#0050a6"/>
   <rect transform="rotate(121 100.939 90.9058)" id="svg_3" height="17.44964" width="3.02013" y="82.18097" x="99.4292" stroke="#0050a6" fill="#0050a6"/>
   <rect stroke="#ffffff" id="svg_4" height="56.04018" width="2.01342" y="19.09382" x="119.89896" fill="#ffffff"/>
   <rect stroke="#ffffff" id="svg_5" height="55.70462" width="2.01342" y="19.42939" x="134.66404" fill="#ffffff"/>
   <rect stroke="#ffffff" id="svg_6" height="58.0536" width="2.01342" y="17.41597" x="148.42241" fill="#ffffff"/>
  </g>
  <rect transform="rotate(30 113.02 92.9192)" stroke="#0050a6" id="svg_8" height="16.10736" width="9.73153" y="84.86553" x="108.15402" fill="#0050a6"/>
  <rect transform="rotate(-11 121.912 80.6709)" id="svg_9" height="9.06039" width="6.7114" y="76.14071" x="118.55669" stroke="#0050a6" fill="#0050a6"/>
 </g>
</svg>